<svg width="687" height="158" viewBox="0 0 687 158" fill="none" xmlns="http://www.w3.org/2000/svg">
<path fill-rule="evenodd" clip-rule="evenodd" d="M68.1 0L0 39.25V117.88L68.1 157.13L136.08 117.81V39.3201L68.1 0ZM101.76 125.74L44.1 92.4199L33.78 98.3799L91.45 131.69L68.1 145.2L10.32 111.92V84.1699L68.1 50.79V38.8701L10.32 72.25V45.2L68.1 11.8999L92.03 25.74V92.3799L102.34 98.3301V31.6899L125.77 45.27V111.86L101.76 125.74ZM232.88 48.5801V39.01H184.03V118.12H194.39V83.8H226.93V74.23H194.39V48.5801H232.88ZM332.22 59.6201C340.74 59.6201 347.57 62.72 351.56 68.3701V39H361.36V118.12H352.83L351.66 109.4C346.96 115.56 340.25 118.81 332.22 118.81C315.34 118.81 304.44 106.63 304.44 89.21C304.44 71.79 315.86 59.6201 332.22 59.6201ZM314.48 89.21C314.48 101.64 321.97 109.99 333.13 109.99C344.05 109.99 351.68 101.84 351.68 89.45C351.68 77.0601 344.28 68.4099 333.13 68.4099C321.98 68.4099 314.48 76.78 314.48 89.21ZM403.4 60.3201H376.33V69.3301H393.61V109.11H376.33V118.12H420.78V109.11H403.4V60.3201ZM405.86 43.5601C405.86 47.8401 402.81 50.9399 398.61 50.9399C394.41 50.9399 391.25 47.6301 391.25 43.5601C391.25 39.49 394.54 36.3101 398.61 36.3101C402.68 36.3101 405.86 39.28 405.86 43.5601ZM488.42 59.6301C479.69 59.6301 474.73 64.1301 472.06 68.0901C469.24 62.78 463.74 59.6301 457.23 59.6301C451.21 59.6301 446.22 61.8501 443.07 65.8901L442.35 60.3201H434.04V118.12H443.84V82.6001C443.84 74.1401 448.15 68.8801 455.09 68.8801C463.93 68.8801 465.78 75.6101 465.78 81.2502V118.12H475.59V81.8101C475.59 74.0801 480.24 68.8801 487.17 68.8801C494.1 68.8801 497.54 73.3901 497.54 81.2502V118.12H507.33V80.9202C507.33 67.79 500.08 59.6301 488.42 59.6301ZM551.84 43.5601C551.84 47.77 548.72 50.9399 544.58 50.9399C540.38 50.9399 537.22 47.6301 537.22 43.5601C537.22 39.49 540.51 36.3101 544.58 36.3101C548.65 36.3101 551.84 39.3501 551.84 43.5601ZM549.38 60.3201H522.3V69.3301H539.58V109.11H522.3V118.12H566.76V109.11H549.38V60.3201ZM589.71 67.6401C592.8 63.8601 598.35 59.6301 607.68 59.6301C616.17 59.6301 630.42 62.9102 630.42 84.8401V118.12H620.63V85.4001C620.63 74.6101 615.47 68.6602 606.11 68.6602C596.06 68.6602 589.82 76.1101 589.82 88.1001V118.12H580.02V60.3201H588.54L589.71 67.6401ZM671.57 109.11C666.85 109.11 665.26 107.52 665.26 102.8V69.3301H685.34V60.3201H665.26V44.27H655.46V60.3201H640.32V69.3301H655.46V102.9C655.46 113.57 660.01 118.12 670.68 118.12H686.24V109.11H671.57ZM238.95 89.21C238.95 71.5198 249.99 59.6299 266.41 59.6299L266.4 59.6399C282.88 59.6399 293.39 70.1599 293.84 87.0898C293.84 87.95 293.74 89.8699 293.61 91.2798L293.59 91.5498H249.2V91.7898C249.56 102.85 256.53 110 266.97 110C274.15 110 279.85 106.51 282.23 100.66L282.31 100.47H292.44L292.33 100.85C289.23 111.76 279.54 118.81 267.64 118.81C250.48 118.81 238.95 106.9 238.95 89.21ZM249.8 83.0798H283.35C282.37 73.8298 276.1 68.3198 266.51 68.3198C257.9 68.3198 250.77 74.6399 249.8 83.0798Z" fill="#170022"/>
</svg>
