<svg width="687" height="158" viewBox="0 0 687 158" fill="none" xmlns="http://www.w3.org/2000/svg">
<path fill-rule="evenodd" clip-rule="evenodd" d="M68.1 0L0 39.25V117.88L68.1 157.13L136.08 117.81V39.32L68.1 0ZM101.76 125.74L44.1 92.42L33.78 98.38L91.45 131.69L68.1 145.2L10.32 111.92V84.17L68.1 50.79V38.87L10.32 72.25V45.2L68.1 11.9L92.03 25.74V92.38L102.34 98.33V31.69L125.77 45.27V111.86L101.76 125.74ZM232.88 48.58V39.01H184.03V118.12H194.39V83.8H226.93V74.23H194.39V48.58H232.88ZM332.22 59.62C340.74 59.62 347.57 62.72 351.56 68.37V39H361.36V118.12H352.83L351.66 109.4C346.96 115.56 340.25 118.81 332.22 118.81C315.34 118.81 304.44 106.63 304.44 89.21C304.44 71.79 315.86 59.62 332.22 59.62ZM314.48 89.21C314.48 101.64 321.97 109.99 333.13 109.99C344.05 109.99 351.68 101.84 351.68 89.45C351.68 77.06 344.28 68.41 333.13 68.41C321.98 68.41 314.48 76.78 314.48 89.21ZM403.4 60.3201H376.33V69.3301H393.61V109.11H376.33V118.12H420.78V109.11H403.4V60.3201ZM405.86 43.5601C405.86 47.8401 402.81 50.9401 398.61 50.9401C394.41 50.9401 391.25 47.6301 391.25 43.5601C391.25 39.4901 394.54 36.3101 398.61 36.3101C402.68 36.3101 405.86 39.2801 405.86 43.5601ZM488.42 59.6301C479.69 59.6301 474.73 64.1301 472.06 68.0901C469.24 62.7801 463.74 59.6301 457.23 59.6301C451.21 59.6301 446.22 61.8501 443.07 65.8901L442.35 60.3201H434.04V118.12H443.84V82.6001C443.84 74.1401 448.15 68.8801 455.09 68.8801C463.93 68.8801 465.78 75.6101 465.78 81.2501V118.12H475.59V81.8101C475.59 74.0801 480.24 68.8801 487.17 68.8801C494.1 68.8801 497.54 73.3901 497.54 81.2501V118.12H507.33V80.9201C507.33 67.7901 500.08 59.6301 488.42 59.6301ZM551.84 43.5601C551.84 47.7701 548.72 50.9401 544.58 50.9401C540.38 50.9401 537.22 47.6301 537.22 43.5601C537.22 39.4901 540.51 36.3101 544.58 36.3101C548.65 36.3101 551.84 39.3501 551.84 43.5601ZM549.38 60.3201H522.3V69.3301H539.58V109.11H522.3V118.12H566.76V109.11H549.38V60.3201ZM589.71 67.6401C592.8 63.8601 598.35 59.6301 607.68 59.6301C616.17 59.6301 630.42 62.9101 630.42 84.8401V118.12H620.63V85.4001C620.63 74.6101 615.47 68.6601 606.11 68.6601C596.06 68.6601 589.82 76.1101 589.82 88.1001V118.12H580.02V60.3201H588.54L589.71 67.6401ZM671.57 109.11C666.85 109.11 665.26 107.52 665.26 102.8V69.33H685.34V60.32H665.26V44.27H655.46V60.32H640.32V69.33H655.46V102.9C655.46 113.57 660.01 118.12 670.68 118.12H686.24V109.11H671.57ZM238.95 89.2099C238.95 71.5199 249.99 59.6299 266.41 59.6299L266.4 59.6399C282.88 59.6399 293.39 70.1599 293.84 87.0899C293.84 87.9499 293.74 89.8699 293.61 91.2799L293.59 91.5499H249.2V91.7899C249.56 102.85 256.53 110 266.97 110C274.15 110 279.85 106.51 282.23 100.66L282.31 100.47H292.44L292.33 100.85C289.23 111.76 279.54 118.81 267.64 118.81C250.48 118.81 238.95 106.9 238.95 89.2099ZM249.8 83.0799H283.35C282.37 73.8299 276.1 68.3199 266.51 68.3199C257.9 68.3199 250.77 74.6399 249.8 83.0799Z" fill="#E8FFF2"/>
</svg>
